<svg xmlns="http://www.w3.org/2000/svg" viewBox="0 0 168 168" id="failure">
  <path fill="#2d4356" d="M97.5 109.738a2 2 0 0 0-2-2h-56a2 2 0 0 0 0 4h56a2 2 0 0 0 2-2Z"></path>
  <path fill="#0bceb2" d="M95.5 97.738h-56a2 2 0 1 0 0 4h56a2 2 0 1 0 0-4Z"></path>
  <path fill="#2d4356" d="M67.5 31.738a25 25 0 1 0 25 25 25.028 25.028 0 0 0-25-25Zm11 42.855a20.807 20.807 0 0 1-22 0v-6.855a9.01 9.01 0 0 1 9-9h4a9.01 9.01 0 0 1 9 9Zm-16-24.855a5 5 0 1 1 5 5 5.006 5.006 0 0 1-5-5Zm20 21.67v-3.67a13.012 13.012 0 0 0-8.235-12.083 9 9 0 1 0-13.53 0A13.012 13.012 0 0 0 52.5 67.738v3.67a21 21 0 1 1 30 0Z"></path>
  <path fill="#0bceb2" d="M39.5 141.738h56a1.983 1.983 0 0 0 .692-.13 27.88 27.88 0 0 1-1.84-3.87H39.5a2 2 0 0 0 0 4Z"></path>
  <path fill="#2d4356" d="M39.5 131.738h53.29a28.094 28.094 0 0 1-.29-4h-53a2 2 0 0 0 0 4Z"></path>
  <path fill="#0bceb2" d="M39.5 121.738h53.654a27.745 27.745 0 0 1 1.199-4H39.5a2 2 0 0 0 0 4zm92.414-5.414a2 2 0 0 0-2.828 0l-8.586 8.586-8.586-8.586a2 2 0 0 0-2.828 2.828l8.586 8.586-8.586 8.586a2 2 0 1 0 2.828 2.828l8.586-8.585 8.586 8.585a2 2 0 0 0 2.828-2.828l-8.586-8.586 8.586-8.586a2 2 0 0 0 0-2.828z"></path>
  <circle cx="2" cy="149.738" r="2" fill="#2d4356"></circle>
  <path fill="#2d4356" d="M11 147.738H8a2 2 0 0 0 0 4h3a2 2 0 0 0 0-4zm149 0h-3a2 2 0 0 0 0 4h3a2 2 0 0 0 0-4z"></path>
  <circle cx="166" cy="149.738" r="2" fill="#2d4356"></circle>
  <path fill="#0bceb2" d="M118.154 155.738h-8.308a2.006 2.006 0 0 0 0 4h8.308a2.006 2.006 0 0 0 0-4zm-60 0h-8.308a2.006 2.006 0 0 0 0 4h8.308a2.006 2.006 0 0 0 0-4zm45.846 0H64a2 2 0 0 0 0 4h15.94v2H72a2 2 0 0 0 0 4h25a2 2 0 1 0 0-4h-8.94v-2H104a2 2 0 1 0 0-4z"></path>
  <path fill="#2d4356" d="M150.721 147.738h-16.974a24 24 0 1 0-26.493 0H29.5a2.002 2.002 0 0 1-2-2v-56h80v13.213a27.84 27.84 0 0 1 4-1.72V29.738a6.007 6.007 0 0 0-6-6h-76a6.007 6.007 0 0 0-6 6v116a5.96 5.96 0 0 0 .35 2h-6.571a2.017 2.017 0 1 0 0 4H150.72a2.017 2.017 0 1 0 0-4zM27.5 29.738a2.002 2.002 0 0 1 2-2h76a2.002 2.002 0 0 1 2 2v56h-80zm73 98a20 20 0 1 1 20 20 20.023 20.023 0 0 1-20-20zm14.333-112a3 3 0 1 0-3-3 3.003 3.003 0 0 0 3 3zm0-4.5a1.5 1.5 0 1 1-1.5 1.5 1.501 1.501 0 0 1 1.5-1.5zM161 37.072a2 2 0 1 0 2 2 2.002 2.002 0 0 0-2-2zm0 3a1 1 0 1 1 1-1 1.001 1.001 0 0 1-1 1z"></path>
  <path fill="#2d4356" d="M122.305 58.738a2 2 0 1 0 2 2 2.002 2.002 0 0 0-2-2zm0 3a1 1 0 1 1 1-1 1.001 1.001 0 0 1-1 1zm36-52a2 2 0 1 0 2 2 2.002 2.002 0 0 0-2-2zm0 3a1 1 0 1 1 1-1 1.001 1.001 0 0 1-1 1zM37.667 17.072a2 2 0 1 0-2 2 2.002 2.002 0 0 0 2-2zm-3 0a1 1 0 1 1 1 1 1.001 1.001 0 0 1-1-1z"></path>
  <path fill="#0bceb2" d="m13.892 42.42 1.487-1.955-.939-.532-.955 2.19h-.031l-.97-2.175-.955.548L13 42.405v.031l-2.301-.297v1.064l2.316-.297v.031l-1.486 1.908.891.564 1.018-2.206h.031l.939 2.19.986-.563-1.502-1.878v-.031l2.362.282v-1.064l-2.362.313v-.032zM6.856 7.811 6 8.91l.514.324.586-1.27h.017l.541 1.261.568-.324-.865-1.081v-.018l1.36.162v-.613l-1.36.18v-.018l.856-1.126-.541-.306-.549 1.261h-.018L6.55 6.09 6 6.405l.847 1.099v.018l-1.325-.171v.613l1.334-.171v.018zM140.843 31.696v-1.043l-2.317.307v-.031l1.459-1.918-.921-.522-.936 2.148h-.031l-.951-2.133-.938.537 1.444 1.873v.031l-2.257-.292v1.043l2.272-.291v.031l-1.459 1.872.875.553.999-2.165h.03l.92 2.149.968-.552-1.474-1.842v-.031l2.317.276zM69.062 4.366l1.258-1.654-.794-.45-.807 1.853h-.027l-.821-1.84-.808.463 1.245 1.615v.027l-1.947-.252v.9l1.96-.251v.026l-1.258 1.615.754.477.862-1.867h.026l.794 1.854.834-.477-1.271-1.589V4.79l1.999.238v-.9l-1.999.265v-.027z"></path>
</svg>
